<svg xmlns="http://www.w3.org/2000/svg" width="32" height="32" viewBox="0 0 32 32"><path d="M0 30.3v-28.6q0-0.7 0.5-1.2t1.2-0.5h14.3v9.7q0 0.7 0.5 1.2t1.2 0.5h9.7v18.9q0 0.7-0.5 1.2t-1.2 0.5h-24q-0.7 0-1.2-0.5t-0.5-1.2zM6.9 24.6q0 0.3 0.2 0.4t0.4 0.2h12.6q0.3 0 0.4-0.2t0.2-0.4v-1.1q0-0.2-0.2-0.4t-0.4-0.2h-12.6q-0.2 0-0.4 0.2t-0.2 0.4v1.1zM6.9 20q0 0.3 0.2 0.4t0.4 0.2h12.6q0.3 0 0.4-0.2t0.2-0.4v-1.1q0-0.2-0.2-0.4t-0.4-0.2h-12.6q-0.2 0-0.4 0.2t-0.2 0.4v1.1zM6.9 15.4q0 0.3 0.2 0.4t0.4 0.2h12.6q0.3 0 0.4-0.2t0.2-0.4v-1.1q0-0.2-0.2-0.4t-0.4-0.2h-12.6q-0.2 0-0.4 0.2t-0.2 0.4v1.1zM18.3 9.1v-8.4q0.4 0.3 0.6 0.5l7.3 7.3q0.3 0.3 0.5 0.6h-8.4z" fill="#fff"/></svg>
