<svg xmlns="http://www.w3.org/2000/svg" width="32" height="32" viewBox="0 0 32 32"><path d="M0 24.6v-17.1q0-2.1 1.5-3.6t3.6-1.5h17.1q2.1 0 3.6 1.5t1.5 3.6v17.1q0 2.1-1.5 3.6t-3.6 1.5h-4q-0.3 0-0.4 0t-0.3-0.1-0.3-0.3-0.1-0.5v-4.3q0-1.7-0.9-2.5 1-0.1 1.8-0.3t1.7-0.7 1.4-1.2 0.9-1.9 0.4-2.7q0-2.2-1.4-3.7 0.7-1.6-0.1-3.6-0.5-0.2-1.4 0.2t-1.6 0.8l-0.7 0.4q-1.7-0.5-3.4-0.5t-3.4 0.5q-0.3-0.2-0.8-0.5t-1.5-0.7-1.5-0.2q-0.8 2-0.1 3.6-1.4 1.5-1.4 3.7 0 1.5 0.4 2.7t0.9 1.9 1.4 1.2 1.7 0.7 1.8 0.3q-0.7 0.6-0.9 1.8-0.4 0.2-0.8 0.3t-1 0.1-1.2-0.4-1-1.1q-0.3-0.6-0.9-0.9t-0.9-0.4l-0.4-0.1q-0.4 0-0.5 0.1t-0.1 0.2 0.2 0.3 0.2 0.2l0.1 0.1q0.4 0.2 0.8 0.7t0.6 0.9l0.2 0.4q0.2 0.7 0.8 1.1t1.2 0.5 1.2 0.1 1-0.1l0.4-0.1q0 0.7 0 1.8t0 1.2q0 0.4-0.2 0.6t-0.4 0.2-0.6 0h-4q-2.1 0-3.6-1.5t-1.5-3.6zM4.8 21.8q0.1-0.1 0.2 0 0.2 0.1 0.1 0.2-0.1 0.1-0.2 0-0.2-0.1-0.1-0.2zM5.4 22.3q0.1-0.1 0.3 0.1 0.2 0.2 0 0.3-0.1 0.1-0.3-0.1-0.2-0.2 0-0.3zM6 23.3q-0.2-0.2 0-0.3 0.2-0.1 0.3 0.1 0.2 0.2 0 0.3-0.1 0.1-0.3-0.1zM6.6 23.8q0.1-0.2 0.4 0.1 0.2 0.2 0.1 0.3-0.1 0.2-0.4-0.1-0.2-0.2-0.1-0.3zM7.5 24.4q0.1-0.2 0.3-0.1 0.3 0.1 0.2 0.3-0.1 0.2-0.3 0.1-0.3-0.1-0.2-0.3zM8.6 24.7q0-0.2 0.3-0.2 0.3 0 0.3 0.2 0 0.2-0.3 0.2-0.3 0-0.3-0.2zM9.6 24.6q0-0.2 0.3-0.3 0.3 0 0.3 0.2 0 0.2-0.2 0.3t-0.3-0.1z" fill="#fff"/></svg>
