<svg xmlns="http://www.w3.org/2000/svg" width="32" height="32" viewBox="0 0 32 32"><path d="M0 26.2v-20.4q0-1.4 1-2.5t2.5-1h20.4q1.4 0 2.5 1t1 2.5v20.4q0 1.4-1 2.5t-2.5 1h-20.4q-1.4 0-2.5-1t-1-2.5zM3.1 25.5q0 0.5 0.3 0.8t0.8 0.3h19.1q0.4 0 0.8-0.3t0.3-0.8v-11.6h-2.4q0.4 1.1 0.4 2.3 0 2.3-1.1 4.2t-3.1 3-4.3 1.1q-3.5 0-6-2.4t-2.5-5.8q0-1.2 0.4-2.3h-2.5v11.6zM8.2 15.9q0 2.2 1.6 3.8t3.9 1.6q2.3 0 3.9-1.6t1.6-3.8-1.6-3.8-3.9-1.6q-2.3 0-3.9 1.6t-1.6 3.8zM18.8 9.5q0 0.5 0.4 0.9t0.9 0.4h3.1q0.5 0 0.9-0.4t0.4-0.9v-2.9q0-0.5-0.4-0.9t-0.9-0.4h-3.1q-0.5 0-0.9 0.4t-0.4 0.9v2.9z" fill="#fff"/></svg>