<svg xmlns="http://www.w3.org/2000/svg" width="32" height="32" viewBox="0 0 32 32"><path d="M0 26.9v-14.2q0.8 0.9 1.8 1.6 6.5 4.4 8.9 6.2 1 0.8 1.7 1.2t1.7 0.9 2 0.4h0q0.9 0 2-0.4t1.7-0.9 1.7-1.2q3-2.2 8.9-6.2 1-0.7 1.8-1.6v14.2q0 1.2-0.8 2t-2 0.8h-26.3q-1.2 0-2-0.8t-0.8-2zM0 7.8q0-1.4 0.7-2.3t2.1-0.9h26.3q1.2 0 2 0.8t0.8 2q0 1.4-0.9 2.7t-2.2 2.2q-6.7 4.7-8.4 5.8-0.2 0.1-0.8 0.5t-1 0.7-0.9 0.6-1 0.5-0.9 0.2h0q-0.4 0-0.9-0.2t-1-0.5-0.9-0.6-1-0.7-0.8-0.5q-1.6-1.1-4.7-3.3t-3.7-2.5q-1.1-0.7-2.1-2.1t-1-2.4z" fill="#fff"/></svg>