<svg xmlns="http://www.w3.org/2000/svg" width="32" height="32" viewBox="0 0 32 32"><path d="M0 24.6v-17.1q0-2.1 1.5-3.6t3.6-1.5h17.1q2.1 0 3.6 1.5t1.5 3.6v17.1q0 2.1-1.5 3.6t-3.6 1.5h-17.1q-2.1 0-3.6-1.5t-1.5-3.6zM4.6 11.3q0 0.3 0 0.6t0.1 0.5 0.2 0.6 0.2 0.5 0.2 0.6 0.2 0.5q1.1 2.9 3.9 5.7t5.7 3.9q0.1 0 0.5 0.2t0.6 0.2 0.5 0.2 0.6 0.2 0.5 0.1 0.6 0q1 0 2.3-0.6t1.7-1.4q0.4-0.9 0.4-1.8 0-0.2 0-0.3-0.1-0.1-0.7-0.5t-1.6-0.9l-0.9-0.5q-0.1-0.1-0.3-0.2t-0.4-0.3-0.4-0.1q-0.3 0-0.8 0.6t-1 1.2-0.8 0.6q-0.1 0-0.3-0.1t-0.3-0.1-0.3-0.2-0.2-0.2q-1.8-1-3-2.3t-2.3-3q0-0.1-0.2-0.2t-0.2-0.3-0.1-0.3-0.1-0.3q0-0.2 0.4-0.6t0.8-0.7 0.8-0.7 0.4-0.7q0-0.2-0.1-0.4t-0.3-0.4-0.2-0.3q-0.1-0.1-0.3-0.5t-0.4-0.8-0.5-0.8-0.4-0.7-0.3-0.3-0.3 0q-0.9 0-1.8 0.4-0.8 0.4-1.4 1.7t-0.6 2.3z" fill="#fff"/></svg>