<svg xmlns="http://www.w3.org/2000/svg" width="32" height="32" viewBox="0 0 32 32"><path d="M0 9.1q0-2.8 2-4.8t4.8-2q2.3 0 4.2 1.4 1.4-0.3 2.7-0.3 2.6 0 4.9 1t4 2.7 2.7 4 1 4.9q0 1.3-0.3 2.7 1.4 1.9 1.4 4.2 0 2.8-2 4.8t-4.8 2q-2.3 0-4.2-1.4-1.4 0.3-2.7 0.3-2.6 0-4.9-1t-4-2.7-2.7-4-1-4.9q0-1.3 0.3-2.7-1.4-1.9-1.4-4.2zM6.7 20.3q0 1.6 2.2 2.8t5.2 1.2q1.3 0 2.5-0.3t2.2-1 1.6-1.7 0.6-2.3q0-0.9-0.3-1.6t-0.9-1.2-1.3-0.9-1.5-0.6-1.6-0.4l-1.9-0.4q-0.5-0.1-0.8-0.2t-0.6-0.2-0.5-0.3-0.3-0.4-0.1-0.5q0-1.4 2.6-1.4 0.8 0 1.4 0.2t1 0.5 0.7 0.6 0.7 0.5 0.9 0.2q0.8 0 1.3-0.6t0.5-1.4q0-1-1-1.8t-2.5-1.2-3.2-0.4q-1.2 0-2.4 0.3t-2.1 0.8-1.6 1.6-0.6 2.3q0 1.1 0.3 1.9t1 1.3 1.4 0.9 1.8 0.6l2.6 0.6q1.6 0.4 2 0.6 0.6 0.4 0.6 1.1 0 0.7-0.7 1.2t-1.9 0.5q-0.9 0-1.6-0.3t-1.2-0.7-0.8-0.8-0.8-0.7-1-0.3q-0.9 0-1.3 0.5t-0.5 1.3z" fill="#fff"/></svg>
